<mxfile host="app.diagrams.net" agent="Mozilla/5.0 (Windows NT 10.0; Win64; x64) AppleWebKit/537.36 (KHTML, like Gecko) Chrome/136.0.0.0 Safari/537.36" version="26.2.14">
  <diagram name="Page-1" id="g4uEJwVApC-8BKiMDtJV">
    <mxGraphModel dx="1154" dy="658" grid="1" gridSize="10" guides="1" tooltips="1" connect="1" arrows="1" fold="1" page="1" pageScale="1" pageWidth="850" pageHeight="1100" math="0" shadow="0">
      <root>
        <mxCell id="0" />
        <mxCell id="1" parent="0" />
        <mxCell id="zcal4szhA9THlN3-I1z9-9" style="rounded=0;orthogonalLoop=1;jettySize=auto;html=1;exitX=1;exitY=0.5;exitDx=0;exitDy=0;entryX=0.102;entryY=0.005;entryDx=0;entryDy=0;entryPerimeter=0;" edge="1" parent="1" source="zcal4szhA9THlN3-I1z9-1" target="zcal4szhA9THlN3-I1z9-8">
          <mxGeometry relative="1" as="geometry" />
        </mxCell>
        <mxCell id="zcal4szhA9THlN3-I1z9-20" value="H2" style="edgeLabel;html=1;align=center;verticalAlign=middle;resizable=0;points=[];" vertex="1" connectable="0" parent="zcal4szhA9THlN3-I1z9-9">
          <mxGeometry x="-0.0247" y="3" relative="1" as="geometry">
            <mxPoint as="offset" />
          </mxGeometry>
        </mxCell>
        <mxCell id="zcal4szhA9THlN3-I1z9-1" value="&lt;span style=&quot;line-height: 107%; font-family: Aptos, sans-serif;&quot;&gt;&lt;font&gt;Efficacité&lt;/font&gt;&lt;/span&gt;&lt;span style=&quot;font-size:11.0pt;line-height:107%;&lt;br/&gt;font-family:&amp;quot;Aptos&amp;quot;,sans-serif;mso-ascii-theme-font:minor-latin;mso-fareast-font-family:&lt;br/&gt;Aptos;mso-fareast-theme-font:minor-latin;mso-hansi-theme-font:minor-latin;&lt;br/&gt;mso-bidi-font-family:&amp;quot;Times New Roman&amp;quot;;mso-bidi-theme-font:minor-bidi;&lt;br/&gt;mso-ansi-language:FR-MA;mso-fareast-language:EN-US;mso-bidi-language:AR-SA&quot;&gt;&amp;nbsp;&lt;/span&gt;" style="rounded=1;whiteSpace=wrap;html=1;" vertex="1" parent="1">
          <mxGeometry x="240" y="320" width="120" height="40" as="geometry" />
        </mxCell>
        <mxCell id="zcal4szhA9THlN3-I1z9-10" style="rounded=0;orthogonalLoop=1;jettySize=auto;html=1;exitX=1;exitY=0.5;exitDx=0;exitDy=0;entryX=0;entryY=0.25;entryDx=0;entryDy=0;" edge="1" parent="1" source="zcal4szhA9THlN3-I1z9-2" target="zcal4szhA9THlN3-I1z9-8">
          <mxGeometry relative="1" as="geometry" />
        </mxCell>
        <mxCell id="zcal4szhA9THlN3-I1z9-21" value="H3" style="edgeLabel;html=1;align=center;verticalAlign=middle;resizable=0;points=[];" vertex="1" connectable="0" parent="zcal4szhA9THlN3-I1z9-10">
          <mxGeometry x="0.0384" y="-2" relative="1" as="geometry">
            <mxPoint x="1" as="offset" />
          </mxGeometry>
        </mxCell>
        <mxCell id="zcal4szhA9THlN3-I1z9-2" value="&lt;span style=&quot;line-height: 107%; font-family: Aptos, sans-serif;&quot;&gt;&lt;font&gt;Disponibilité&lt;br/&gt;du système&amp;nbsp;&lt;/font&gt;&lt;/span&gt;" style="rounded=1;whiteSpace=wrap;html=1;" vertex="1" parent="1">
          <mxGeometry x="240" y="400" width="120" height="40" as="geometry" />
        </mxCell>
        <mxCell id="zcal4szhA9THlN3-I1z9-11" style="rounded=0;orthogonalLoop=1;jettySize=auto;html=1;exitX=1;exitY=0.5;exitDx=0;exitDy=0;entryX=0;entryY=0.75;entryDx=0;entryDy=0;" edge="1" parent="1" source="zcal4szhA9THlN3-I1z9-5" target="zcal4szhA9THlN3-I1z9-8">
          <mxGeometry relative="1" as="geometry" />
        </mxCell>
        <mxCell id="zcal4szhA9THlN3-I1z9-22" value="H4" style="edgeLabel;html=1;align=center;verticalAlign=middle;resizable=0;points=[];" vertex="1" connectable="0" parent="zcal4szhA9THlN3-I1z9-11">
          <mxGeometry x="-0.0082" y="-1" relative="1" as="geometry">
            <mxPoint as="offset" />
          </mxGeometry>
        </mxCell>
        <mxCell id="zcal4szhA9THlN3-I1z9-5" value="&lt;span style=&quot;line-height: 107%;&quot;&gt;&lt;font&gt;Réalisation&amp;nbsp;&lt;/font&gt;&lt;/span&gt;" style="rounded=1;whiteSpace=wrap;html=1;" vertex="1" parent="1">
          <mxGeometry x="240" y="480" width="120" height="40" as="geometry" />
        </mxCell>
        <mxCell id="zcal4szhA9THlN3-I1z9-12" style="rounded=0;orthogonalLoop=1;jettySize=auto;html=1;exitX=1;exitY=0.5;exitDx=0;exitDy=0;entryX=0.102;entryY=0.996;entryDx=0;entryDy=0;entryPerimeter=0;" edge="1" parent="1" source="zcal4szhA9THlN3-I1z9-6" target="zcal4szhA9THlN3-I1z9-8">
          <mxGeometry relative="1" as="geometry">
            <mxPoint x="500" y="490" as="targetPoint" />
          </mxGeometry>
        </mxCell>
        <mxCell id="zcal4szhA9THlN3-I1z9-23" value="H5" style="edgeLabel;html=1;align=center;verticalAlign=middle;resizable=0;points=[];" vertex="1" connectable="0" parent="zcal4szhA9THlN3-I1z9-12">
          <mxGeometry x="0.0827" y="3" relative="1" as="geometry">
            <mxPoint as="offset" />
          </mxGeometry>
        </mxCell>
        <mxCell id="zcal4szhA9THlN3-I1z9-6" value="&lt;span style=&quot;line-height: 107%; font-family: Aptos, sans-serif;&quot;&gt;&lt;font style=&quot;font-size: 11px;&quot;&gt;Confidentialité&amp;nbsp;&lt;/font&gt;&lt;/span&gt;" style="rounded=1;whiteSpace=wrap;html=1;" vertex="1" parent="1">
          <mxGeometry x="240" y="560" width="120" height="40" as="geometry" />
        </mxCell>
        <mxCell id="zcal4szhA9THlN3-I1z9-14" style="rounded=0;orthogonalLoop=1;jettySize=auto;html=1;exitX=0.985;exitY=0.042;exitDx=0;exitDy=0;entryX=0;entryY=0.5;entryDx=0;entryDy=0;endArrow=none;startFill=0;exitPerimeter=0;" edge="1" parent="1" source="zcal4szhA9THlN3-I1z9-7" target="zcal4szhA9THlN3-I1z9-1">
          <mxGeometry relative="1" as="geometry" />
        </mxCell>
        <mxCell id="zcal4szhA9THlN3-I1z9-19" style="edgeStyle=orthogonalEdgeStyle;rounded=0;orthogonalLoop=1;jettySize=auto;html=1;entryX=0.5;entryY=1;entryDx=0;entryDy=0;exitX=0.5;exitY=1;exitDx=0;exitDy=0;" edge="1" parent="1" source="zcal4szhA9THlN3-I1z9-7" target="zcal4szhA9THlN3-I1z9-8">
          <mxGeometry relative="1" as="geometry">
            <Array as="points">
              <mxPoint x="110" y="640" />
              <mxPoint x="500" y="640" />
            </Array>
          </mxGeometry>
        </mxCell>
        <mxCell id="zcal4szhA9THlN3-I1z9-24" value="H1" style="edgeLabel;html=1;align=center;verticalAlign=middle;resizable=0;points=[];" vertex="1" connectable="0" parent="zcal4szhA9THlN3-I1z9-19">
          <mxGeometry x="-0.031" y="2" relative="1" as="geometry">
            <mxPoint as="offset" />
          </mxGeometry>
        </mxCell>
        <mxCell id="zcal4szhA9THlN3-I1z9-7" value="&lt;span style=&quot;line-height: 107%; font-family: &amp;quot;Times New Roman&amp;quot;, serif;&quot;&gt;&lt;font style=&quot;font-size: 11px;&quot;&gt;la qualité du service électronique&amp;nbsp;&lt;/font&gt;&lt;/span&gt;" style="rounded=1;whiteSpace=wrap;html=1;" vertex="1" parent="1">
          <mxGeometry x="50" y="440" width="120" height="40" as="geometry" />
        </mxCell>
        <mxCell id="zcal4szhA9THlN3-I1z9-8" value="&lt;span style=&quot;line-height: 107%; font-family: &amp;quot;Times New Roman&amp;quot;, serif;&quot;&gt;&lt;font&gt;l&#39;intention d&#39;achat&amp;nbsp;&lt;/font&gt;&lt;/span&gt;" style="rounded=1;whiteSpace=wrap;html=1;" vertex="1" parent="1">
          <mxGeometry x="440" y="440" width="120" height="40" as="geometry" />
        </mxCell>
        <mxCell id="zcal4szhA9THlN3-I1z9-16" style="rounded=0;orthogonalLoop=1;jettySize=auto;html=1;exitX=1;exitY=0.25;exitDx=0;exitDy=0;entryX=0;entryY=0.5;entryDx=0;entryDy=0;endArrow=none;startFill=0;" edge="1" parent="1" source="zcal4szhA9THlN3-I1z9-7" target="zcal4szhA9THlN3-I1z9-2">
          <mxGeometry relative="1" as="geometry">
            <mxPoint x="200" y="452" as="sourcePoint" />
            <mxPoint x="241" y="350" as="targetPoint" />
          </mxGeometry>
        </mxCell>
        <mxCell id="zcal4szhA9THlN3-I1z9-17" style="rounded=0;orthogonalLoop=1;jettySize=auto;html=1;exitX=1;exitY=0.75;exitDx=0;exitDy=0;endArrow=none;startFill=0;entryX=0;entryY=0.5;entryDx=0;entryDy=0;" edge="1" parent="1" source="zcal4szhA9THlN3-I1z9-7" target="zcal4szhA9THlN3-I1z9-5">
          <mxGeometry relative="1" as="geometry">
            <mxPoint x="200" y="462" as="sourcePoint" />
            <mxPoint x="230" y="502" as="targetPoint" />
          </mxGeometry>
        </mxCell>
        <mxCell id="zcal4szhA9THlN3-I1z9-18" style="rounded=0;orthogonalLoop=1;jettySize=auto;html=1;exitX=0.989;exitY=0.944;exitDx=0;exitDy=0;entryX=0;entryY=0.5;entryDx=0;entryDy=0;endArrow=none;startFill=0;exitPerimeter=0;" edge="1" parent="1" source="zcal4szhA9THlN3-I1z9-7" target="zcal4szhA9THlN3-I1z9-6">
          <mxGeometry relative="1" as="geometry">
            <mxPoint x="200" y="471" as="sourcePoint" />
            <mxPoint x="241" y="369" as="targetPoint" />
          </mxGeometry>
        </mxCell>
      </root>
    </mxGraphModel>
  </diagram>
</mxfile>
